<?xml version="1.0" encoding="UTF-8" standalone="no"?>
<svg
   xmlns:dc="http://purl.org/dc/elements/1.1/"
   xmlns:cc="http://creativecommons.org/ns#"
   xmlns:rdf="http://www.w3.org/1999/02/22-rdf-syntax-ns#"
   xmlns:svg="http://www.w3.org/2000/svg"
   xmlns="http://www.w3.org/2000/svg"
   id="svg8"
   version="1.1"
   viewBox="0 0 170 98.880997"
   height="98.880997mm"
   width="170mm">
  <defs
     id="defs2" />
  <metadata
     id="metadata5">
    <rdf:RDF>
      <cc:Work
         rdf:about="">
        <dc:format>image/svg+xml</dc:format>
        <dc:type
           rdf:resource="http://purl.org/dc/dcmitype/StillImage" />
        <dc:title></dc:title>
      </cc:Work>
    </rdf:RDF>
  </metadata>
  <g
     transform="translate(0,-198.119)"
     id="layer1">
    <rect
       y="228.18205"
       x="8.065463e-09"
       height="33.59679"
       width="170.00072"
       id="rect5384"
       style="opacity:1;fill:#538296;fill-opacity:1;stroke:none;stroke-width:1.11593556;stroke-miterlimit:4;stroke-dasharray:none;stroke-opacity:1" />
    <text
       id="text4491"
       y="251.01294"
       x="5.5656095"
       style="font-style:normal;font-weight:normal;font-size:27.54557991px;line-height:13.77278996px;font-family:sans-serif;letter-spacing:0px;word-spacing:0px;fill:#ffffff;fill-opacity:1;stroke:none;stroke-width:0.68863946px;stroke-linecap:butt;stroke-linejoin:miter;stroke-opacity:1"
       xml:space="preserve"><tspan
         id="tspan4493"
         style="font-style:normal;font-variant:normal;font-weight:normal;font-stretch:normal;line-height:26.85694122px;font-family:'Zilla Slab';-inkscape-font-specification:'Zilla Slab';fill:#ffffff;stroke-width:0.68863946px"
         y="251.01294"
         x="5.5656095">participation</tspan></text>
    <g
       id="g25">
      <rect
         id="rect4"
         height="28.438679"
         width="99.49424"
         y="198.119"
         x="8.065463e-09"
         style="stroke-width:0.27423993" />
      <path
         style="fill:#ffffff;stroke-width:0.27423993"
         id="path6"
         d="m 95.051373,218.52245 c -0.191966,0.0549 -0.356511,0.0823 -0.521056,0.0823 -0.575907,0 -0.850146,-0.24681 -0.850146,-0.95984 v -5.40252 c 0,-2.8521 -2.276188,-4.2233 -4.936316,-4.2233 -2.029362,0 -3.153737,0.24682 -5.320221,1.12439 l -0.493631,2.85209 2.852078,0.30167 0.411359,-1.39863 c 0.575895,-0.30166 1.151799,-0.35651 1.892238,-0.35651 2.001945,0 2.029376,1.50832 2.029376,2.79725 v 0.41136 c -0.630759,-0.0823 -1.343781,-0.1097 -2.029376,-0.1097 -2.852081,0 -5.786422,0.71303 -5.786422,3.78451 0,2.60528 2.02936,3.56512 3.839333,3.56512 2.001941,0 3.290864,-1.20665 4.003885,-2.49558 0.164545,1.50832 1.069533,2.49558 2.742403,2.49558 0.767873,0 1.563167,-0.21939 2.248768,-0.5759 z m -7.651292,-0.0823 c -1.069527,0 -1.453455,-0.63075 -1.453455,-1.42605 0,-1.34377 1.096947,-1.70029 2.385867,-1.70029 0.575904,0 1.206653,0.0823 1.782561,0.16455 -0.109694,2.0568 -1.453471,2.96179 -2.714973,2.96179 z m -4.771748,-16.70121 -5.375072,18.9774 h -3.510245 l 5.375072,-18.9774 z m -7.239886,0 -5.375073,18.9774 h -3.510255 l 5.375073,-18.9774 z m -14.945998,6.52691 h 3.729642 v 4.47011 h -3.729642 z m 0,7.98038 h 3.729642 v 4.47011 h -3.729642 z m -5.429922,-0.16454 2.824658,0.27424 -0.767857,4.36041 H 46.182002 l -0.356512,-1.86483 6.855998,-7.87069 h -3.894207 l -0.54848,1.91968 -2.577855,-0.27424 0.438783,-4.36041 h 10.942168 l 0.274236,1.86483 -6.910837,7.87068 h 4.031327 z m -17.825595,-8.06266 c -4.470111,0 -6.691454,3.01664 -6.691454,6.66403 0,3.97648 2.660127,6.30752 6.499486,6.30752 3.976479,0 6.855998,-2.52301 6.855998,-6.49949 -0.02742,-3.45542 -2.193919,-6.47206 -6.66403,-6.47206 z m -0.08227,10.22915 c -1.91968,0 -2.934368,-1.64544 -2.934368,-3.81193 0,-2.35847 1.124384,-3.70224 2.961791,-3.70224 1.672864,0 3.044063,1.12438 3.044063,3.64739 -0.02742,2.38589 -1.234079,3.86678 -3.071486,3.86678 z m -9.81779,-0.24682 h 1.64544 v 2.71498 h -5.210558 v -7.02054 c 0,-2.1665 -0.713025,-2.98922 -2.111648,-2.98922 -1.700287,0 -2.413311,1.20666 -2.413311,2.96179 v 4.33299 h 1.645439 v 2.71498 h -5.210559 v -7.02054 c 0,-2.1665 -0.713023,-2.98922 -2.139071,-2.98922 -1.700287,0 -2.413311,1.20666 -2.413311,2.96179 v 4.33299 h 2.385887 v 2.71498 H 5.8961565 v -2.71498 H 7.5415962 V 210.9534 H 5.8961565 v -2.71497 h 5.2105585 v 1.86483 c 0.740448,-1.31636 2.029375,-2.11165 3.784511,-2.11165 1.782559,0 3.455422,0.85014 4.058751,2.68755 0.685599,-1.64544 2.084223,-2.68755 4.05875,-2.68755 2.248768,0 4.278143,1.34377 4.278143,4.30557 z"
         class="st0" />
    </g>
    <rect
       y="263.4032"
       x="8.065463e-09"
       height="33.59679"
       width="170.00072"
       id="rect5384-9"
       style="opacity:1;fill:#538296;fill-opacity:1;stroke:none;stroke-width:1.11593556;stroke-miterlimit:4;stroke-dasharray:none;stroke-opacity:1" />
    <text
       id="text4491-2"
       y="285.36639"
       x="4.766788"
       style="font-style:normal;font-weight:normal;font-size:27.54557991px;line-height:13.77278996px;font-family:sans-serif;letter-spacing:0px;word-spacing:0px;fill:#ffffff;fill-opacity:1;stroke:none;stroke-width:0.68863946px;stroke-linecap:butt;stroke-linejoin:miter;stroke-opacity:1"
       xml:space="preserve"><tspan
         id="tspan4493-8"
         style="font-style:normal;font-variant:normal;font-weight:normal;font-stretch:normal;line-height:26.85694122px;font-family:'Zilla Slab';-inkscape-font-specification:'Zilla Slab';fill:#ffffff;stroke-width:0.68863946px"
         y="285.36639"
         x="4.766788">systems</tspan></text>
    <g
       style="fill:#000000;fill-opacity:1"
       id="g4810"
       transform="matrix(1.6483433,0,0,1.6483433,104.85342,-1436.003)">
      <path
         id="path4808"
         transform="translate(0,1020.3622)"
         d="m 21.982422,5 a 0.50004997,0.50004997 0 0 0 -0.5,0.5 v 1.0234375 c -0.196651,0.067 -0.387911,0.1446281 -0.574219,0.2363281 L 20.185547,6.0371094 a 0.50004997,0.50004997 0 0 0 -0.707031,0 l -1.441407,1.4414062 a 0.50004997,0.50004997 0 0 0 0,0.7070313 l 0.722657,0.7226562 c -0.09173,0.1862 -0.169569,0.3776188 -0.236328,0.5742188 H 17.5 a 0.50004997,0.50004997 0 0 0 -0.5,0.5 v 2.0371091 a 0.50004997,0.50004997 0 0 0 0.5,0.5 h 1.021484 c 0.06674,0.1966 0.144588,0.387919 0.236328,0.574219 l -0.720703,0.722656 a 0.50004997,0.50004997 0 0 0 0,0.707032 l 1.441407,1.441406 a 0.50004997,0.50004997 0 0 0 0.707031,0 l 0.722656,-0.722656 c 0.18665,0.092 0.377186,0.171481 0.574219,0.238281 V 16.5 a 0.50004997,0.50004997 0 0 0 0.5,0.5 h 2.035156 a 0.50004997,0.50004997 0 0 0 0.5,-0.5 v -1.021484 c 0.196653,-0.067 0.387912,-0.144529 0.574219,-0.236328 l 0.722656,0.722656 a 0.50004997,0.50004997 0 0 0 0.707031,0 l 1.441407,-1.441406 a 0.50004997,0.50004997 0 0 0 0,-0.707032 L 27.240234,13.09375 c 0.09189,-0.1864 0.169466,-0.377519 0.236328,-0.574219 H 28.5 a 0.50004997,0.50004997 0 0 0 0.5,-0.5 V 9.9824219 a 0.50004997,0.50004997 0 0 0 -0.5,-0.5 h -1.021484 c -0.06674,-0.1967 -0.144589,-0.3879188 -0.236328,-0.5742188 l 0.720703,-0.7226562 a 0.50004997,0.50004997 0 0 0 0,-0.7070313 L 26.521484,6.0371094 a 0.50004997,0.50004997 0 0 0 -0.707031,0 l -0.722656,0.7226562 c -0.18665,-0.092 -0.377186,-0.1714812 -0.574219,-0.2382812 V 5.5 a 0.50004997,0.50004997 0 0 0 -0.5,-0.5 z m 0.5,1 h 1.035156 v 0.8515625 a 0.50004997,0.50004997 0 0 0 0.38086,0.484375 c 0.371946,0.091 0.729003,0.2391 1.05664,0.4375 a 0.50004997,0.50004997 0 0 0 0.611328,-0.074219 l 0.601563,-0.6015626 0.734375,0.734375 -0.59961,0.6015626 a 0.50004997,0.50004997 0 0 0 -0.07422,0.6113281 c 0.198426,0.3279 0.344266,0.6844406 0.435546,1.0566404 a 0.50004997,0.50004997 0 0 0 0.486329,0.38086 H 28 v 1.037109 h -0.849609 a 0.50004997,0.50004997 0 0 0 -0.486329,0.38086 c -0.09135,0.372 -0.239139,0.727087 -0.4375,1.054687 a 0.50004997,0.50004997 0 0 0 0.07422,0.613281 l 0.601563,0.601563 -0.734375,0.734375 -0.59961,-0.601563 a 0.50004997,0.50004997 0 0 0 -0.613281,-0.07422 c -0.32785,0.1985 -0.684447,0.3462 -1.05664,0.4375 a 0.50004997,0.50004997 0 0 0 -0.38086,0.486328 V 16 h -1.035156 v -0.849609 a 0.50004997,0.50004997 0 0 0 -0.38086,-0.486329 c -0.371946,-0.091 -0.729003,-0.237146 -1.05664,-0.435546 a 0.50004997,0.50004997 0 0 0 -0.611328,0.07422 l -0.601563,0.601563 -0.734375,-0.734375 0.59961,-0.601563 a 0.50004997,0.50004997 0 0 0 0.07422,-0.611328 c -0.198426,-0.3279 -0.344267,-0.68444 -0.435546,-1.05664 a 0.50004997,0.50004997 0 0 0 -0.486329,-0.38086 H 18 v -1.037109 h 0.849609 a 0.50004997,0.50004997 0 0 0 0.486329,-0.38086 c 0.09135,-0.3719995 0.239139,-0.727087 0.4375,-1.054687 a 0.50004997,0.50004997 0 0 0 -0.07422,-0.6132812 l -0.601563,-0.6015626 0.734375,-0.734375 0.59961,0.6015626 a 0.50004997,0.50004997 0 0 0 0.613281,0.074219 c 0.327855,-0.1984 0.682498,-0.3463 1.054687,-0.4375 A 0.50004997,0.50004997 0 0 0 22.482422,6.8496094 Z M 23,8.2597656 C 21.492228,8.2597656 20.259722,9.4923 20.259766,11 20.25979,12.5078 21.492275,13.742188 23,13.742188 24.507725,13.742188 25.74021,12.5078 25.740234,11 25.740278,9.4923 24.507772,8.2597656 23,8.2597656 Z m 0,1 C 23.967321,9.2597656 24.740262,10.0327 24.740234,11 24.740219,11.9673 23.96729,12.742188 23,12.742188 22.03271,12.742188 21.259781,11.9673 21.259766,11 21.259738,10.0327 22.032679,9.2597656 23,9.2597656 Z M 9.6113281,11.5 a 0.50005,0.50005 0 0 0 -0.5,0.5 v 1.513672 c -0.3483448,0.11 -0.6855467,0.247715 -1.0097656,0.416016 l -1.0683594,-1.06836 a 0.50005,0.50005 0 0 0 -0.7070312,0 l -1.9648438,1.964844 a 0.50005,0.50005 0 0 0 0,0.707031 l 1.0683594,1.070313 c -0.1681409,0.3238 -0.3060205,0.659912 -0.4160156,1.007812 H 3.5 a 0.50005,0.50005 0 0 0 -0.5,0.5 v 2.779297 a 0.50005,0.50005 0 0 0 0.5,0.5 h 1.5136719 c 0.1101438,0.3486 0.2474692,0.685266 0.4160156,1.009766 L 4.3613281,23.46875 a 0.50005,0.50005 0 0 0 0,0.707031 l 1.9648438,1.964844 a 0.50005,0.50005 0 0 0 0.7070312,0 l 1.0703125,-1.070313 c 0.3237813,0.168201 0.6599535,0.306016 1.0078125,0.416016 V 27 a 0.50005,0.50005 0 0 0 0.5,0.5 h 2.7773439 a 0.50005,0.50005 0 0 0 0.5,-0.5 v -1.511719 c 0.348345,-0.11 0.685546,-0.247715 1.009766,-0.416015 l 1.068359,1.068359 a 0.50005,0.50005 0 0 0 0.707031,0 l 1.964844,-1.964844 a 0.50005,0.50005 0 0 0 0,-0.707031 l -1.06836,-1.070312 c 0.168141,-0.3238 0.306021,-0.660013 0.416016,-1.007813 H 18.5 a 0.50005,0.50005 0 0 0 0.5,-0.5 v -2.779297 a 0.50005,0.50005 0 0 0 -0.5,-0.5 h -1.513672 c -0.11014,-0.3487 -0.247466,-0.685266 -0.416016,-1.009766 l 1.06836,-1.068359 a 0.50005,0.50005 0 0 0 0,-0.707031 l -1.964844,-1.964844 a 0.50005,0.50005 0 0 0 -0.707031,0 l -1.070313,1.070313 c -0.323781,-0.1682 -0.659953,-0.306116 -1.007812,-0.416016 V 12 a 0.50005,0.50005 0 0 0 -0.5,-0.5 z m 0.4999999,1 h 1.777344 v 1.341797 a 0.50005,0.50005 0 0 0 0.380859,0.486328 c 0.525102,0.1289 1.027691,0.337188 1.490235,0.617187 a 0.50005,0.50005 0 0 0 0.613281,-0.07422 l 0.947265,-0.949219 1.257813,1.257813 -0.947266,0.947265 a 0.50005,0.50005 0 0 0 -0.07422,0.613281 c 0.280129,0.4628 0.488321,0.964735 0.617187,1.490235 a 0.50005,0.50005 0 0 0 0.486328,0.380859 H 18 v 1.779297 h -1.341797 a 0.50005,0.50005 0 0 0 -0.484375,0.380859 c -0.128963,0.5251 -0.337152,1.025682 -0.617187,1.488282 a 0.50005,0.50005 0 0 0 0.07422,0.613281 l 0.947266,0.949219 -1.257813,1.257812 -0.947265,-0.947266 a 0.50005,0.50005 0 0 0 -0.611328,-0.07422 c -0.462851,0.2801 -0.966742,0.488287 -1.492188,0.617187 a 0.50005,0.50005 0 0 0 -0.380859,0.484375 V 26.5 H 10.111328 V 25.160156 A 0.50005,0.50005 0 0 0 9.7304688,24.673828 c -0.5251021,-0.129 -1.0276906,-0.337187 -1.4902344,-0.617187 a 0.50005,0.50005 0 0 0 -0.6132813,0.07422 L 6.6796875,25.080078 5.421875,23.822266 6.3691406,22.875 a 0.50005,0.50005 0 0 0 0.074219,-0.613281 C 6.1632386,21.798919 5.9550469,21.296884 5.8261719,20.771484 A 0.50005,0.50005 0 0 0 5.3398438,20.390625 H 4 v -1.779297 h 1.3417969 a 0.50005,0.50005 0 0 0 0.484375,-0.380859 c 0.1289627,-0.5251 0.3371518,-1.027735 0.6171875,-1.490235 A 0.50005,0.50005 0 0 0 6.3691406,16.128906 L 5.421875,15.179688 6.6796875,13.921875 7.6269531,14.869141 a 0.50005,0.50005 0 0 0 0.6113281,0.07422 c 0.4628514,-0.2801 0.9667419,-0.488287 1.4921876,-0.617187 A 0.50005,0.50005 0 0 0 10.111328,13.841797 Z M 11,15.945312 C 9.042227,15.945312 7.4452793,17.5423 7.4453125,19.5 7.4453434,21.4578 9.0422718,23.056641 11,23.056641 12.957728,23.056641 14.554656,21.4578 14.554688,19.5 14.554721,17.5423 12.957773,15.945312 11,15.945312 Z m 0,1 c 1.417325,0 2.554712,1.137388 2.554688,2.554688 C 13.554664,20.9173 12.417292,22.056641 11,22.056641 9.5827076,22.056641 8.4453349,20.9173 8.4453125,19.5 8.4452885,18.0827 9.5826744,16.945312 11,16.945312 Z"
         style="color:#000000;font-style:normal;font-variant:normal;font-weight:normal;font-stretch:normal;font-size:medium;line-height:normal;font-family:sans-serif;text-indent:0;text-align:start;text-decoration:none;text-decoration-line:none;text-decoration-style:solid;text-decoration-color:#000000;letter-spacing:normal;word-spacing:normal;text-transform:none;writing-mode:lr-tb;direction:ltr;baseline-shift:baseline;text-anchor:start;white-space:normal;clip-rule:nonzero;display:inline;overflow:visible;visibility:visible;opacity:1;isolation:auto;mix-blend-mode:normal;color-interpolation:sRGB;color-interpolation-filters:linearRGB;solid-color:#000000;solid-opacity:1;fill:#000000;fill-opacity:1;fill-rule:nonzero;stroke:none;stroke-width:1;stroke-linecap:round;stroke-linejoin:round;stroke-miterlimit:4;stroke-dasharray:none;stroke-dashoffset:1.39999998;stroke-opacity:1;color-rendering:auto;image-rendering:auto;shape-rendering:auto;text-rendering:auto;enable-background:accumulate" />
    </g>
  </g>
  <style
     id="style2"
     type="text/css">
	.st0{fill:#FFFFFF;}
</style>
</svg>
